<svg width="64" height="64" viewBox="0 0 64 64" fill="none" xmlns="http://www.w3.org/2000/svg">
<rect width="64" height="64" rx="12" fill="#1e3a8a"/>
<path d="M32 12C21.82 12 12 21.6 12 32C12 35.73 13.11 39.46 15 42.5C16.89 39.46 20 33.6 20 32C20 25.6 25.07 20 31.5 20C37.93 20 43 25.6 43 32C43 33.6 40.11 39.46 38.22 42.5C39.89 39.46 41 35.73 41 32C41 21.6 37.93 12 32 12Z" fill="url(#paint0_linear_1_2)"/>
<path d="M32 52C42.18 52 52 42.4 52 32C52 28.27 50.89 24.54 49 21.5C47.11 24.54 44 30.4 44 32C44 38.4 38.93 44 32.5 44C26.07 44 21 38.4 21 32C21 30.4 23.89 24.54 25.78 21.5C24.11 24.54 23 28.27 23 32C23 42.4 26.07 52 32 52Z" fill="url(#paint1_linear_1_2)"/>
<defs>
<linearGradient id="paint0_linear_1_2" x1="27.5" y1="12" x2="27.5" y2="42.5" gradientUnits="userSpaceOnUse">
<stop stop-color="#3b82f6"/>
<stop offset="1" stop-color="#2563eb"/>
</linearGradient>
<linearGradient id="paint1_linear_1_2" x1="37.5" y1="21.5" x2="37.5" y2="52" gradientUnits="userSpaceOnUse">
<stop stop-color="#f59e0b"/>
<stop offset="1" stop-color="#d97706"/>
</linearGradient>
</defs>
</svg>
