<svg xmlns="http://www.w3.org/2000/svg" viewBox="0 0 37 37"><path d="M5 5h7v7H5z"/><path d="M13 5h1v1h-1zm2 0h1v1h-1zm2 0h1v1h-1zm2 0h7v7h-7zm-1 1h1v1h-1z"/><path d="M5 13h1v1H5zm2 0h1v1H7zm10 0h1v1h-1zm2 0h1v1h-1zm2 0h1v1h-1z"/><path d="M5 15h1v1H5zm2 0h1v1H7zm4 0h1v1h-1zm2 0h1v1h-1zm2 0h1v1h-1zm2 0h1v1h-1z"/><path d="M5 17h1v1H5zm2 0h1v1H7zm4 0h1v1h-1zm2 0h1v1h-1zm4 0h1v1h-1zm2 0h1v1h-1z"/><path d="M5 19h7v7H5z"/><path d="M13 19h1v1h-1zm2 0h1v1h-1zm2 0h1v1h-1zm2 0h7v7h-7z"/><path d="M7 7h3v3H7z"/><path d="M21 7h3v3h-3z"/><path d="M7 21h3v3H7z"/><path d="M21 21h3v3h-3z"/><path fill-rule="evenodd" d="M13 6h1v1h-1zm2 0h1v1h-1zm2 0h1v1h-1z"/><path d="M25 6h1v1h-1z"/><path fill-rule="evenodd" d="M27 6h1v1h-1zm-9 1h1v1h-1zm4 0h1v1h-1zm2 0h1v1h-1zm3 0h1v1h-1z"/><path d="M13 8h1v1h-1z"/><path fill-rule="evenodd" d="M15 8h1v1h-1zm2 0h1v1h-1zm6 0h1v1h-1zm2 0h1v1h-1zm2 0h1v1h-1z"/><path d="M13 9h1v1h-1z"/><path fill-rule="evenodd" d="M15 9h1v1h-1z"/><path d="M17 9h1v1h-1z"/><path fill-rule="evenodd" d="M21 9h1v1h-1zm2 0h1v1h-1zm2 0h1v1h-1zm4 0h1v1h-1z"/><path d="M13 10h1v1h-1z"/><path fill-rule="evenodd" d="M15 10h1v1h-1zm2 0h1v1h-1z"/><path d="M21 10h1v1h-1z"/><path fill-rule="evenodd" d="M23 10h1v1h-1zm2 0h1v1h-1z"/><path d="M27 10h1v1h-1z"/><path fill-rule="evenodd" d="M29 10h1v1h-1z"/><path d="M13 11h1v1h-1z"/><path fill-rule="evenodd" d="M15 11h1v1h-1zm2 0h1v1h-1zm2 0h1v1h-1zm2 0h1v1h-1zm2 0h1v1h-1zm2 0h1v1h-1zm2 0h1v1h-1zm2 0h1v1h-1z"/><path d="M6 13h1v1H6zm4 0h1v1h-1zm2 0h1v1h-1zm4 0h1v1h-1z"/><path fill-rule="evenodd" d="M25 13h1v1h-1zm2 0h1v1h-1zm2 0h1v1h-1z"/><path d="M6 14h1v1H6zm4 0h1v1h-1zm2 0h1v1h-1z"/><path fill-rule="evenodd" d="M18 14h1v1h-1z"/><path d="M20 14h1v1h-1z"/><path fill-rule="evenodd" d="M22 14h1v1h-1zm2 0h1v1h-1zm2 0h1v1h-1z"/><path d="M28 14h1v1h-1z"/><path fill-rule="evenodd" d="M30 14h1v1h-1z"/><path d="M6 16h1v1H6zm2 0h1v1H8zm2 0h1v1h-1zm2 0h1v1h-1zm2 0h1v1h-1z"/><path fill-rule="evenodd" d="M18 16h1v1h-1zm2 0h1v1h-1z"/><path d="M22 16h1v1h-1z"/><path fill-rule="evenodd" d="M24 16h1v1h-1z"/><path d="M26 16h1v1h-1z"/><path fill-rule="evenodd" d="M28 16h1v1h-1zm2 0h1v1h-1z"/><path d="M6 18h1v1H6zm4 0h1v1h-1zm2 0h1v1h-1zm2 0h1v1h-1zm2 0h1v1h-1zm2 0h1v1h-1z"/><path fill-rule="evenodd" d="M25 18h1v1h-1zm2 0h1v1h-1zm2 0h1v1h-1zm2 0h1v1h-1zm-7 1h1v1h-1zm4 0h1v1h-1zm2 0h1v1h-1zm-9 2h1v1h-1zm2 0h1v1h-1zm6 0h1v1h-1zm2 0h1v1h-1zm2 0h1v1h-1z"/><path d="M13 22h1v1h-1z"/><path fill-rule="evenodd" d="M15 22h1v1h-1zm2 0h1v1h-1zm6 0h1v1h-1zm2 0h1v1h-1zm2 0h1v1h-1z"/><path d="M13 23h1v1h-1z"/><path fill-rule="evenodd" d="M15 23h1v1h-1z"/><path d="M17 23h1v1h-1z"/><path fill-rule="evenodd" d="M21 23h1v1h-1zm2 0h1v1h-1zm2 0h1v1h-1zm4 0h1v1h-1z"/><path d="M13 24h1v1h-1z"/><path fill-rule="evenodd" d="M15 24h1v1h-1zm2 0h1v1h-1zm2 0h1v1h-1zm2 0h1v1h-1zm2 0h1v1h-1zm2 0h1v1h-1zm2 0h1v1h-1zm2 0h1v1h-1z"/><path d="M13 25h1v1h-1zm2 0h1v1h-1zm2 0h1v1h-1z"/><path fill-rule="evenodd" d="M25 25h1v1h-1zm2 0h1v1h-1zm2 0h1v1h-1z"/><path d="M13 26h1v1h-1zm2 0h1v1h-1zm2 0h1v1h-1zm2 0h1v1h-1z"/><path fill-rule="evenodd" d="M21 26h1v1h-1zm2 0h1v1h-1zm2 0h1v1h-1zm2 0h1v1h-1z"/><path d="M29 26h1v1h-1z"/><path fill-rule="evenodd" d="M31 26h1v1h-1z"/></svg>