<svg xmlns="http://www.w3.org/2000/svg" viewBox="0 0 25 25"><path d="M4 4h5v5H4z"/><path d="M10 4h1v1h-1z"/><path d="M12 4h1v1h-1zm2 0h5v5h-5z"/><path d="M4 10h1v1H4z"/><path d="M6 10h1v1H6z"/><path d="M8 10h1v1H8z"/><path d="M10 10h1v1h-1z"/><path d="M12 10h1v1h-1z"/><path d="M14 10h1v1h-1z"/><path d="M16 10h1v1h-1z"/><path d="M18 10h1v1h-1z"/><path d="M20 10h1v1h-1z"/><path d="M4 12h1v1H4z"/><path d="M6 12h1v1H6z"/><path d="M8 12h1v1H8z"/><path d="M12 12h1v1h-1z"/><path d="M14 12h1v1h-1z"/><path d="M16 12h1v1h-1z"/><path d="M20 12h1v1h-1z"/><path d="M4 14h5v5H4z"/><path d="M10 14h1v1h-1z"/><path d="M12 14h5v5h-5z"/><path d="M6 6h1v1H6z"/><path d="M14 6h1v1h-1z"/><path d="M16 6h1v1h-1z"/><path d="M6 16h1v1H6z"/><path d="M14 16h1v1h-1z"/><path d="M16 16h1v1h-1z"/><path fill-rule="evenodd" d="M10 5h1v1h-1z"/><path d="M12 5h1v1h-1z"/><path fill-rule="evenodd" d="M18 5h1v1h-1z"/><path d="M10 6h1v1h-1z"/><path fill-rule="evenodd" d="M12 6h1v1h-1z"/><path d="M18 6h1v1h-1z"/><path fill-rule="evenodd" d="M20 6h1v1h-1zm-9 1h1v1h-1zm2 0h1v1h-1zm3 0h1v1h-1z"/><path d="M18 7h1v1h-1z"/><path fill-rule="evenodd" d="M10 8h1v1h-1z"/><path d="M12 8h1v1h-1z"/><path fill-rule="evenodd" d="M18 8h1v1h-1zm2 0h1v1h-1z"/><path d="M10 12h1v1h-1z"/><path fill-rule="evenodd" d="M18 12h1v1h-1zm-3 1h1v1h-1zm3 0h1v1h-1zm-3 1h1v1h-1z"/><path d="M10 15h1v1h-1z"/><path fill-rule="evenodd" d="M18 15h1v1h-1z"/><path d="M10 16h1v1h-1z"/><path fill-rule="evenodd" d="M18 16h1v1h-1z"/><path d="M10 17h1v1h-1z"/><path fill-rule="evenodd" d="M12 17h1v1h-1zm2 0h1v1h-1zm2 0h1v1h-1zm2 0h1v1h-1z"/><path d="M11 18h1v1h-1z"/><path fill-rule="evenodd" d="M13 18h1v1h-1zm2 0h1v1h-1z"/><path d="M17 18h1v1h-1z"/><path fill-rule="evenodd" d="M19 18h1v1h-1zm-8 1h1v1h-1zm2 0h1v1h-1zm2 0h1v1h-1z"/></svg>