
<svg xmlns="http://www.w3.org/2000/svg" width="200" height="200" viewBox="0 0 53 53"><path fill="#fff" d="M0 0h53v53H0z"/><path d="M4 4h11v11H4z"/><path d="M19 4h3v11h-3z"/><path d="M26 4h3v3h-3zm5 0h2v3h-2zm4 0h3v3h-3zm6 0h2v3h-2zm3 0h3v2h-3z"/><path d="M4 19h3v3H4z"/><path d="M11 19h2v3h-2z"/><path d="M19 19h2v2h-2zm2 0h2v3h-2zm2 0h3v3h-3zm3 0h3v2h-3zm2 0h3v3h-3zm4 0h2v2h-2zm2 0h3v3h-3zm3 0h2v3h-2z"/><path d="M4 26h3v3H4zm3 0h2v2H7zm2 0h3v3H9zm3 0h3v2h-3zm2 0h2v3h-2zm3 0h2v2h-2zm3 0h3v3h-3zm2 0h2v2h-2zm2 0h3v3h-3zm2 0h2v3h-2zm2 0h2v3h-2z"/><path d="M4 33h2v3H4zm2 0h2v2H6zm2 0h2v3H8zm4 0h3v3h-3zm2 0h2v3h-2zm3 0h3v2h-3zm2 0h2v3h-2zm2 0h2v2h-2zm2 0h2v3h-2zm3 0h2v2h-2z"/><path d="M4 40h3v3H4zm3 0h2v2H7zm3 0h2v3h-2zm2 0h2v2h-2zm2 0h2v2h-2zm3 0h2v3h-2zm2 0h2v2h-2zm2 0h3v3h-3zm3 0h2v2h-2zm3 0h2v3h-2z"/><path d="M7 7h5v5H7z"/><path fill-rule="evenodd" d="M26 7h2v2h-2zm4 0h3v2h-3zm3 0h2v3h-2zm3 0h2v2h-2zm-12-3h2v2h-2zm4 0h3v2h-3zm3 0h2v3h-2zm3 0h3v2h-3z"/><path d="M42 7h3v3h-3z"/><path fill-rule="evenodd" d="M49 7h3v3h-3zm-3-3h3v2h-3z"/><path d="M19 15h2v2h-2z"/><path fill-rule="evenodd" d="M22 15h3v2h-3zm3 0h2v3h-2zm3 0h3v2h-3zm-9-4h2v2h-2zm3 0h3v2h-3zm3 0h2v3h-2zm3 0h2v2h-2z"/><path d="M38 15h3v3h-3z"/><path fill-rule="evenodd" d="M45 15h2v3h-2zm-3-4h3v2h-3zm-10 9h3v2h-3zm3 2h2v2h-2zm2-2h2v3h-2zm-2 2h2v2h-2z"/><path d="M42 24h3v3h-3zm-3 0h2v2h-2z"/><path fill-rule="evenodd" d="M45 26h2v2h-2z"/><path d="M31 31h2v2h-2z"/><path fill-rule="evenodd" d="M33 31h3v2h-3zm3 0h2v3h-2zm-3 3h2v2h-2z"/><path d="M40 31h2v2h-2zm2 0h2v2h-2z"/><path fill-rule="evenodd" d="M45 31h3v3h-3zm-5 2h2v2h-2zm-2 2h2v2h-2zm5-2h2v2h-2z"/><path d="M26 38h2v2h-2z"/><path fill-rule="evenodd" d="M28 38h2v2h-2zm2 0h2v2h-2zm3 0h3v2h-3zm3 0h2v2h-2zm-8-2h2v2h-2z"/><path d="M31 38h2v2h-2z"/><path fill-rule="evenodd" d="M33 38h3v2h-3zm3 0h2v2h-2zm-8-2h2v2h-2zm3 0h3v2h-3z"/><path d="M38 42h2v2h-2z"/><path fill-rule="evenodd" d="M40 42h2v2h-2zm2 0h3v2h-3zm3 0h2v3h-2zm-5-2h3v2h-3zm-2-2h2v2h-2z"/><path d="M28 45h2v2h-2z"/><path fill-rule="evenodd" d="M30 45h2v2h-2zm2 0h2v2h-2zm-2-2h2v2h-2zm-2-2h2v2h-2z"/></svg>
